<svg xmlns="http://www.w3.org/2000/svg" viewBox="0 0 800 500">
  <ellipse cx="400" cy="445" rx="330" ry="26" fill="#000000" opacity="0.16"/>

  <!-- rear tire -->
  <circle cx="580" cy="355" r="102" fill="#1D2124"/>
  <circle cx="580" cy="355" r="102" fill="#2A2E33"/>
  <g stroke="#1D2124" stroke-width="9" opacity="0.8">
    <path d="M580 255 L580 275"/>
    <path d="M622 268 L610 285"/>
    <path d="M655 300 L636 313"/>
    <path d="M675 340 L652 346"/>
    <path d="M675 372 L652 366"/>
    <path d="M655 412 L636 399"/>
    <path d="M622 444 L610 427"/>
    <path d="M580 457 L580 437"/>
    <path d="M538 444 L550 427"/>
    <path d="M505 412 L524 399"/>
    <path d="M485 372 L508 366"/>
    <path d="M485 340 L508 346"/>
    <path d="M505 300 L524 313"/>
    <path d="M538 268 L550 285"/>
  </g>
  <circle cx="580" cy="355" r="58" fill="#8A96A3"/>
  <circle cx="580" cy="355" r="52" fill="#F5862B"/>
  <circle cx="580" cy="355" r="52" fill="none" stroke="#D9631A" stroke-width="4"/>
  <circle cx="580" cy="355" r="20" fill="#5C6670"/>
  <circle cx="580" cy="355" r="9" fill="#2A2E33"/>
  <circle cx="580" cy="330" r="5" fill="#D9631A"/>
  <circle cx="601" cy="343" r="5" fill="#D9631A"/>
  <circle cx="601" cy="368" r="5" fill="#D9631A"/>
  <circle cx="580" cy="381" r="5" fill="#D9631A"/>
  <circle cx="559" cy="368" r="5" fill="#D9631A"/>
  <circle cx="559" cy="343" r="5" fill="#D9631A"/>

  <!-- front tire -->
  <circle cx="185" cy="398" r="54" fill="#1D2124"/>
  <circle cx="185" cy="398" r="54" fill="#2A2E33"/>
  <circle cx="185" cy="398" r="30" fill="#8A96A3"/>
  <circle cx="185" cy="398" r="26" fill="#F5862B"/>
  <circle cx="185" cy="398" r="26" fill="none" stroke="#D9631A" stroke-width="3"/>
  <circle cx="185" cy="398" r="10" fill="#5C6670"/>
  <circle cx="185" cy="398" r="4" fill="#2A2E33"/>

  <!-- front axle link -->
  <rect x="185" y="378" width="180" height="16" rx="8" fill="#5C6670"/>
  <rect x="185" y="378" width="180" height="6" rx="3" fill="#8A96A3" opacity="0.6"/>

  <!-- rear fender -->
  <path d="M480 300 A102 102 0 0 1 680 300 L690 320 Q590 285 470 320 Z" fill="#14351F"/>
  <path d="M480 300 A102 102 0 0 1 680 300 L686 312 Q590 280 474 312 Z" fill="#1B7A43"/>

  <!-- main body / chassis -->
  <path d="M300 260 L470 250 L470 330 L340 340 L300 330 Z" fill="#1B7A43"/>
  <path d="M300 260 L470 250 L470 270 L300 280 Z" fill="#2FA55C" opacity="0.6"/>

  <!-- hood -->
  <path d="M180 296 C180 270 210 250 250 244 L360 232 L360 300 L210 312 Q188 310 180 296 Z" fill="#1B7A43"/>
  <path d="M180 296 C180 270 210 250 250 244 L360 232 L360 250 L210 265 Q186 268 180 296 Z" fill="#2FA55C" opacity="0.55"/>
  <path d="M300 300 L360 296 L360 330 L300 334 Z" fill="#14351F" opacity="0.5"/>

  <!-- grille -->
  <path d="M180 296 C180 274 196 258 218 250 L218 300 Q196 305 180 296 Z" fill="#2A2E33"/>
  <line x1="188" y1="262" x2="188" y2="298" stroke="#5C6670" stroke-width="3"/>
  <line x1="198" y1="258" x2="198" y2="300" stroke="#5C6670" stroke-width="3"/>
  <line x1="208" y1="255" x2="208" y2="301" stroke="#5C6670" stroke-width="3"/>

  <!-- headlight -->
  <circle cx="222" cy="262" r="13" fill="#F4EFE6"/>
  <circle cx="222" cy="262" r="13" fill="none" stroke="#C9D2DA" stroke-width="3"/>
  <circle cx="219" cy="259" r="4" fill="#FFFFFF" opacity="0.8"/>

  <!-- exhaust pipe -->
  <rect x="330" y="120" width="20" height="118" rx="6" fill="#5C6670"/>
  <rect x="330" y="120" width="8" height="118" rx="4" fill="#8A96A3" opacity="0.6"/>
  <ellipse cx="340" cy="120" rx="12" ry="7" fill="#2A2E33"/>
  <rect x="322" y="228" width="36" height="14" rx="4" fill="#3E454C"/>

  <!-- steering column and wheel -->
  <path d="M410 260 L440 220" stroke="#5C6670" stroke-width="8" stroke-linecap="round"/>
  <circle cx="450" cy="210" r="28" fill="none" stroke="#2A2E33" stroke-width="8"/>
  <circle cx="450" cy="210" r="28" fill="none" stroke="#5C6670" stroke-width="3"/>
  <line x1="450" y1="186" x2="450" y2="234" stroke="#5C6670" stroke-width="5"/>
  <line x1="428" y1="198" x2="472" y2="222" stroke="#5C6670" stroke-width="5"/>
  <line x1="428" y1="222" x2="472" y2="198" stroke="#5C6670" stroke-width="5"/>

  <!-- seat -->
  <path d="M470 260 Q500 240 505 268 L505 300 Q485 296 470 292 Z" fill="#2A2E33"/>
  <path d="M470 260 Q500 240 505 268 L505 278 Q485 268 470 264 Z" fill="#4A4F55" opacity="0.6"/>
  <rect x="472" y="292" width="30" height="14" rx="4" fill="#1D2124"/>

  <!-- mirror antenna detail -->
  <rect x="255" y="222" width="6" height="26" fill="#5C6670"/>
  <rect x="245" y="216" width="24" height="10" rx="2" fill="#8A96A3"/>
</svg>
