<svg xmlns="http://www.w3.org/2000/svg" viewBox="0 0 400 300">
  <ellipse cx="200" cy="256" rx="130" ry="16" fill="#000000" opacity="0.15"/>
  <path d="M80 120 C60 180 110 230 170 220 C240 208 220 130 290 118" fill="none" stroke="#1D2124" stroke-width="30" stroke-linecap="round"/>
  <path d="M80 120 C60 180 110 230 170 220 C240 208 220 130 290 118" fill="none" stroke="#2A2E33" stroke-width="22" stroke-linecap="round"/>
  <path d="M80 120 C60 180 110 230 170 220 C240 208 220 130 290 118" fill="none" stroke="#42484F" stroke-width="8" stroke-linecap="round" opacity="0.5"/>
  <path d="M76 112 C58 175 108 226 170 216" fill="none" stroke="#FFFFFF" stroke-width="4" opacity="0.15" stroke-linecap="round"/>
  <g transform="rotate(20 80 100)">
    <rect x="55" y="80" width="50" height="34" rx="4" fill="#5C6670"/>
    <rect x="55" y="80" width="50" height="14" rx="4" fill="#C9D2DA" opacity="0.6"/>
    <rect x="40" y="88" width="22" height="20" rx="3" fill="#8A96A3"/>
    <rect x="40" y="88" width="22" height="8" rx="3" fill="#C9D2DA" opacity="0.6"/>
  </g>
  <g transform="rotate(-25 300 108)">
    <rect x="285" y="88" width="50" height="34" rx="4" fill="#5C6670"/>
    <rect x="285" y="88" width="50" height="14" rx="4" fill="#C9D2DA" opacity="0.6"/>
    <rect x="325" y="96" width="22" height="20" rx="3" fill="#8A96A3"/>
    <rect x="325" y="96" width="22" height="8" rx="3" fill="#C9D2DA" opacity="0.6"/>
  </g>
</svg>
